<svg xmlns="http://www.w3.org/2000/svg" xmlns:xlink="http://www.w3.org/1999/xlink" version="1.1" baseProfile="full" width="1024" height="1024" viewBox="0 0 1024.00 1024.00" enable-background="new 0 0 1024.00 1024.00" xml:space="preserve" class="svg  component icon space-icon">
	<g>
		<path fill="#000000" fill-opacity="0.333333" stroke-width="0.2" stroke-linejoin="round" d="M 511.718,0.00146484C 312.033,0.00146484 126.312,120.096 44.3028,302.177C -38.738,486.613 -2.92386,708.737 133.419,857.939C 269.687,1007 486.962,1062.74 678.153,997.083C 865.969,932.619 1002.84,759.4 1021.71,561.696C 1050.1,264.841 810.146,0.00146484 511.718,0.00146484 Z "></path>
		<path fill="#000000" fill-opacity="1" stroke-width="0.2" stroke-linejoin="round" d="M 738.326,512.063C 718.892,532.802 689.905,565.625 658.071,565.5C 636.441,565.406 634.377,498.583 608.235,486.188C 594.951,479.875 576.476,494.875 587.165,507.875C 598.828,522 598.71,541.094 613.602,553.313C 639.361,574.427 662.495,598.76 696.171,572.844C 692.755,612.375 662.819,634.781 639.597,663.292C 626.563,679.375 616.123,697.323 620.311,718.792C 623.835,736.854 636.854,761.302 622.301,777.802C 612.688,788.75 591.087,794.833 590.276,812.031C 592.709,818.448 593.682,825.104 593.166,831.927C 588.61,841.438 578.702,847.708 573.615,857.469C 563.928,876.115 543.772,912.406 522.083,919.448C 511.452,922.896 484.175,931.938 475.859,921.448C 453.816,893.667 461.483,829 448.567,796.51C 440.03,775.042 456.087,764.5 456.411,744.51C 456.647,729.219 446.105,716.333 438.954,703.729C 429.724,687.563 431.67,676.729 432.304,659.198C 432.884,642.563 416.822,650.813 407.784,645.594C 397.655,639.708 396.534,626.542 382.173,635.521C 369.772,643.125 331.658,649.563 317.489,647.094C 296.964,643.552 272.017,599.323 266.812,580.958C 261.976,563.771 275.084,547.271 270.262,532.844C 265.19,517.677 269.598,503.729 279.595,491.844C 294.87,473.781 313.168,443.469 332.794,431.677C 346.786,423.281 364.995,431.406 381.583,426.885C 396.431,422.865 418.474,417.552 434.206,421.135C 450.631,424.844 432.112,441.125 442.994,447.146C 455.688,454.125 464.845,460.354 476.788,467.958C 489.085,475.729 493.656,453.833 502.517,451.667C 513.281,449.094 527.981,447.531 538.936,449.719C 560.124,454.219 603.443,439.625 582.172,408.135C 574.691,397.115 554.565,393.865 543.227,389.167C 529.19,383.344 537.609,359.49 518.736,360.396C 504.626,363.896 523.97,378.625 519.164,386.833C 510.45,401.813 493.98,370.208 491.739,366.156C 489.1,361.396 458.24,318.76 448.479,328.01C 445.176,331.146 500.364,394.01 458.416,381.74C 458.254,365.146 441.151,363.469 432.127,352.448C 419.579,337.115 409.494,343.948 395.517,356.177C 381.833,368.125 362.002,384.802 345.474,392.698C 309.468,409.99 315.115,372.885 316.117,351.333C 316.796,336.896 338.16,343.635 345.842,340.281C 369.227,329.938 346.314,319.021 340.313,309.156C 347.155,298.885 388.719,286.667 400.441,283.594C 426.73,276.594 448.803,254.99 480.961,270.979C 485.148,272.969 525.489,247.781 496.708,240.615C 464.771,221.604 463.341,249.208 439.146,256.646C 438.939,229.948 373.591,227.521 398.111,191.75C 418.139,162.563 434.397,158.5 491.026,154.344C 532.449,151.594 552.501,152.979 561.48,160.573C 570.46,168.177 573.188,195.521 551.631,198.24C 555.671,233.927 593.019,200.948 607.291,191.792C 630.838,176.729 680.572,186.021 687.266,180.625C 693.96,175.208 682.798,159.875 688.696,150.208C 694.24,141.042 708.217,145.708 710.075,155.042C 735.451,159.115 747.438,140.271 774.405,158.198C 855.825,212.417 918.916,290.469 951.074,416.771C 965.494,473.448 968.177,536.771 951.634,532.188C 940.532,529.125 945.884,504.385 938.482,497.292C 919.344,501.792 887.039,533.656 878.693,551.281C 873.474,562.302 883.795,604.99 860.911,604.99C 851.652,604.99 847.096,570.896 845.754,565.115C 841.832,548.344 838.765,530.51 831.437,514.792C 823.077,496.771 815.484,508.125 802.272,505.552C 785.301,502.167 789.239,479.406 765.264,477.365C 743.162,475.479 735.451,493.01 738.326,512.063 Z M 687.619,793.823C 686.248,810.167 674.851,850.677 652.601,850.677C 636.471,850.677 636.618,827.958 638.255,816.906C 644.182,777.375 661.005,769.99 682.488,740.302C 697.35,752.844 688.99,777.281 687.619,793.823 Z M 326.335,222.26C 340.461,181.135 416.513,246.24 375.759,281.958C 365.968,290.552 312.962,289.125 324.242,276.771C 328.754,271.844 335.669,271.802 340.121,265.625C 351.711,249.51 333.575,234.917 326.335,222.26 Z "></path>
	</g>
</svg>

